#!OML:ASF H:\MichaelJackson\Top Level 1\Subject 1\Session 1\male.ASF
:FULLY-SPECIFIED
:DEGREES
645
root 5.55654 16.4917 -2.99286 16.7787 13.6792 -1.60357
lowerback -0.859429 -3.57879 -5.0734
upperback -2.3293 -4.78204 0.816312
thorax -1.43621 -2.30694 3.67354
lowerneck -9.54489 -7.89572 -0.224257
upperneck 3.88804 -11.0784 7.87718
head 3.47601 -5.19356 1.95068
rclavicle 5.50634e-014 1.19271e-014
rhumerus -33.5991 4.42662 -75.4864
rradius 73.7453
rwrist -19.5242
rhand -28.5506 -37.3401
rfingers 7.12502
rthumb -1.91768 -787.311
lclavicle 5.50634e-014 1.19271e-014
lhumerus -42.5451 -68.2693 122.827
lradius 73.7683
lwrist 24.8853
lhand -4.44354 2.86914
lfingers 7.12502
lthumb 21.328 31.7155
rfemur -56.3108 -27.0141 28.3508
rtibia 63.2871
rfoot -5.66301 -3.64459
rtoes 4.47322
lfemur -18.9052 22.2405 -26.6581
ltibia 35.794
lfoot -36.0616 11.1601
ltoes 24.4023
646
root 5.54605 16.4616 -2.93056 17.1532 12.6526 -1.46274
lowerback -0.920443 -3.63966 -5.11165
upperback -2.27429 -4.86015 0.684474
thorax -1.34571 -2.34998 3.55138
lowerneck -9.50147 -7.84967 -0.283307
upperneck 3.60203 -10.993 7.9521
head 3.37386 -5.16101 1.99684
rclavicle -2.46493e-014 9.54166e-015
rhumerus -34.8912 3.11091 -76.1583
rradius 71.424
rwrist -18.3863
rhand -28.9516 -38.5908
rfingers 7.12502
rthumb -2.30492 -788.558
lclavicle -2.46493e-014 9.54166e-015
lhumerus -43.054 -68.6967 123.651
lradius 73.4975
lwrist 24.9797
lhand -4.58563 3.20086
lfingers 7.12502
lthumb 21.1915 32.0626
rfemur -57.5354 -27.5529 29.7174
rtibia 63.9236
rfoot -6.40579 -3.15084
rtoes 3.58656
lfemur -19.3038 22.8204 -26.9292
ltibia 36.3856
lfoot -36.1344 11.0914
ltoes 23.9268
647
root 5.53765 16.4306 -2.86241 17.4438 11.5879 -1.28675
lowerback -0.948227 -3.69732 -5.16034
upperback -2.21192 -4.93557 0.531922
thorax -1.26776 -2.39132 3.41576
lowerneck -9.48934 -7.79218 -0.338574
upperneck 3.42506 -10.8975 7.96768
head 3.31061 -5.12114 2.02074
rclavicle -1.25234e-014 -2.46493e-014
rhumerus -36.1045 1.68594 -76.6684
rradius 69.158
rwrist -17.4304
rhand -29.2158 -40.0386
rfingers 7.12502
rthumb -2.56009 -790.003
lclavicle -1.25234e-014 -2.46493e-014
lhumerus -43.5125 -69.1283 124.425
lradius 73.2703
lwrist 25.0194
lhand -4.76296 3.43866
lfingers 7.12502
lthumb 21.0212 32.3194
rfemur -58.6706 -28.0594 31.0386
rtibia 64.5949
rfoot -7.06395 -2.77709
rtoes 2.84294
lfemur -19.4954 23.3499 -27.1868
ltibia 36.8653
lfoot -36.213 11.0258
ltoes 23.3915
648
root 5.53136 16.3991 -2.78842 17.6491 10.4812 -1.06276
lowerback -0.938465 -3.75261 -5.23381
upperback -2.14075 -5.00967 0.359205
thorax -1.20197 -2.4315 3.27552
lowerneck -9.50454 -7.72237 -0.390495
upperneck 3.32874 -10.7889 7.92925
head 3.2757 -5.0732 2.02501
rclavicle -2.74323e-014 3.97569e-015
rhumerus -37.2593 0.188806 -77.0027
rradius 67.0057
rwrist -16.6967
rhand -29.3504 -41.6367
rfingers 7.12502
rthumb -2.69014 -791.599
lclavicle -2.74323e-014 3.97569e-015
lhumerus -43.9108 -69.5614 125.138
lradius 73.102
lwrist 25.0193
lhand -4.93619 3.59147
lfingers 7.12502
lthumb 20.8547 32.4906
rfemur -59.6996 -28.5387 32.2849
rtibia 65.2873
rfoot -7.59263 -2.56348
rtoes 2.29622
lfemur -19.4618 23.8079 -27.4514
ltibia 37.1986
lfoot -36.3106 11.0153
ltoes 22.8071
649
root 5.52701 16.3673 -2.70872 17.7735 9.33564 -0.782839
lowerback -0.891586 -3.80854 -5.34253
upperback -2.06138 -5.08653 0.170255
thorax -1.14709 -2.47244 3.14048
lowerneck -9.53978 -7.63917 -0.439622
upperneck 3.27966 -10.6632 7.84418
head 3.25655 -5.01634 2.0132
rclavicle -1.25234e-014 1.74931e-014
rhumerus -38.3759 -1.33565 -77.1544
rradius 65.0169
rwrist -16.2192
rhand -29.3902 -43.3232
rfingers 7.12502
rthumb -2.72852 -793.286
lclavicle -1.25234e-014 1.74931e-014
lhumerus -44.2329 -69.9878 125.772
lradius 73.0028
lwrist 24.9957
lhand -5.0668 3.67676
lfingers 7.12502
lthumb 20.7292 32.5896
rfemur -60.6141 -28.9959 33.4367
rtibia 65.987
rfoot -7.96609 -2.5485
rtoes 2.00652
lfemur -19.2049 24.1779 -27.744
ltibia 37.3655
lfoot -36.4402 11.1075
ltoes 22.191
650
root 5.52428 16.3352 -2.62359 17.8267 8.16274 -0.445163
lowerback -0.812036 -3.87021 -5.49111
upperback -1.97647 -5.1729 -0.0275347
thorax -1.10163 -2.51746 3.02045
lowerneck -9.58774 -7.54141 -0.486232
upperneck 3.2453 -10.5167 7.72
head 3.24098 -4.94969 1.98881
rclavicle 3.04141e-014 1.27222e-014
rhumerus -39.4722 -2.83994 -77.1221
rradius 63.2287
rwrist -16.0084
rhand -29.382 -45.0273
rfingers 7.12502
rthumb -2.72063 -794.99
lclavicle 3.04141e-014 1.27222e-014
lhumerus -44.4578 -70.3955 126.307
lradius 72.9777
lwrist 24.9665
lhand -5.12045 3.71688
lfingers 7.12502
lthumb 20.6777 32.6354
rfemur -61.414 -29.4356 34.4855
rtibia 66.6798
rfoot -8.18745 -2.76319
rtoes 2.01755
lfemur -18.7471 24.4479 -28.0821
ltibia 37.3642
lfoot -36.6137 11.3405
ltoes 21.5647
651
root 5.52272 16.3027 -2.53347 17.8233 6.98137 -0.0563932
lowerback -0.708253 -3.94343 -5.67524
upperback -1.89055 -5.27631 -0.22391
thorax -1.06416 -2.57035 2.923
lowerneck -9.64162 -7.42852 -0.53092
upperneck 3.19775 -10.3469 7.56519
head 3.21871 -4.87277 1.9555
rclavicle -1.63003e-014 4.77083e-015
rhumerus -40.5626 -4.28076 -76.9092
rradius 61.6644
rwrist -16.0393
rhand -29.3689 -46.6703
rfingers 7.12502
rthumb -2.70798 -796.633
lclavicle -1.63003e-014 4.77083e-015
lhumerus -44.5643 -70.7746 126.724
lradius 73.0277
lwrist 24.9484
lhand -5.07683 3.73398
lfingers 7.12502
lthumb 20.7196 32.6479
rfemur -62.1044 -29.8592 35.4351
rtibia 67.3507
rfoot -8.29206 -3.22663
rtoes 2.35037
lfemur -18.1288 24.6123 -28.4749
ltibia 37.2101
lfoot -36.8379 11.7371
ltoes 20.9492
652
root 5.52183 16.2696 -2.43889 17.7807 5.81363 0.36883
lowerback -0.591138 -4.03337 -5.88217
upperback -1.80897 -5.40325 -0.407164
thorax -1.03332 -2.63444 2.85238
lowerneck -9.69647 -7.30093 -0.573404
upperneck 3.11671 -10.1537 7.38745
head 3.18248 -4.7859 1.91621
rclavicle -3.79679e-014 -7.95139e-015
rhumerus -41.6572 -5.62375 -76.5216
rradius 60.334
rwrist -16.2497
rhand -29.3753 -48.1698
rfingers 7.12502
rthumb -2.71414 -798.132
lclavicle -3.79679e-014 -7.95139e-015
lhumerus -44.5367 -71.1192 127.009
lradius 73.1505
lwrist 24.9573
lhand -4.93506 3.74556
lfingers 7.12502
lthumb 20.8558 32.6446
rfemur -62.6914 -30.2631 36.2973
rtibia 67.9832
rfoot -8.34533 -3.94159
rtoes 2.98849
lfemur -17.4017 24.6737 -28.9211
ltibia 36.9351
lfoot -37.114 12.3006
ltoes 20.3595
653
root 5.52118 16.2359 -2.34036 17.716 4.68069 0.809327
lowerback -0.472471 -4.14332 -6.0925
upperback -1.73652 -5.55754 -0.565454
thorax -1.00744 -2.71181 2.80927
lowerneck -9.74975 -7.15995 -0.612815
upperneck 2.99077 -9.93871 7.19372
head 3.12858 -4.68999 1.87315
rclavicle -3.77691e-015 -1.11319e-014
rhumerus -42.7613 -6.84493 -75.9671
rradius 59.237
rwrist -16.5509
rhand -29.404 -49.4418
rfingers 7.12502
rthumb -2.74187 -799.404
lclavicle -3.77691e-015 -1.11319e-014
lhumerus -44.3641 -71.43 127.152
lradius 73.3415
lwrist 25.0047
lhand -4.71405 3.762
lfingers 7.12502
lthumb 21.0681 32.6375
rfemur -63.1757 -30.6376 37.0854
rtibia 68.5602
rfoot -8.43218 -4.88996
rtoes 3.87368
lfemur -16.6214 24.6459 -29.4068
ltibia 36.5844
lfoot -37.4359 13.0126
ltoes 19.7947
654
root 5.52041 16.2016 -2.23831 17.644 3.5985 1.24068
lowerback -0.362721 -4.27374 -6.28357
upperback -1.67666 -5.73904 -0.688721
thorax -0.985041 -2.80261 2.79086
lowerneck -9.80052 -7.00801 -0.647652
upperneck 2.81718 -9.70616 6.98978
head 3.05659 -4.5868 1.82772
rclavicle 5.68524e-014 2.62396e-014
rhumerus -43.8762 -7.93038 -75.2554
rradius 58.3669
rwrist -16.848
rhand -29.44 -50.4199
rfingers 7.12502
rthumb -2.77664 -800.382
lclavicle 5.68524e-014 2.62396e-014
lhumerus -44.0442 -71.7139 127.153
lradius 73.595
lwrist 25.0942
lhand -4.45031 3.7845
lfingers 7.12502
lthumb 21.3215 32.6316
rfemur -63.5484 -30.967 37.8065
rtibia 69.066
rfoot -8.64331 -6.03009
rtoes 4.91261
lfemur -15.8383 24.5529 -29.9076
ltibia 36.2115
lfoot -37.7901 13.8343
ltoes 19.2382
655
root 5.51921 16.167 -2.13323 17.5793 2.58086 1.64128
lowerback -0.271262 -4.42447 -6.43491
upperback -1.63246 -5.94672 -0.769539
thorax -0.965108 -2.9065 2.79289
lowerneck -9.84965 -6.84819 -0.67579
upperneck 2.6008 -9.46151 6.77998
head 2.969 -4.47857 1.78049
rclavicle -2.18663e-014 2.06736e-014
rhumerus -44.9975 -8.87442 -74.3984
rradius 57.7118
rwrist -17.0619
rhand -29.4604 -51.0615
rfingers 7.12502
rthumb -2.79633 -801.023
lclavicle -2.18663e-014 2.06736e-014
lhumerus -43.5772 -71.9807 127.01
lradius 73.9051
lwrist 25.2222
lhand -4.18705 3.80821
lfingers 7.12502
lthumb 21.5743 32.6265
rfemur -63.7998 -31.2334 38.4594
rtibia 69.4881
rfoot -9.05327 -7.30305
rtoes 5.95926
lfemur -15.0999 24.4217 -30.3952
ltibia 35.8748
lfoot -38.1538 14.7115
ltoes 18.6504
